<?xml version="1.0" encoding="UTF-8" standalone="no"?>
<!DOCTYPE svg PUBLIC "-//W3C//DTD SVG 1.1//EN" "http://www.w3.org/Graphics/SVG/1.1/DTD/svg11.dtd">
<svg width="100%" height="100%" viewBox="0 0 546 537" version="1.1" xmlns="http://www.w3.org/2000/svg" xmlns:xlink="http://www.w3.org/1999/xlink" xml:space="preserve" xmlns:serif="http://www.serif.com/" style="fill-rule:evenodd;clip-rule:evenodd;stroke-linejoin:round;stroke-miterlimit:2;">
    <g transform="matrix(1,0,0,1,-393.290074,-41.284012)">
        <g>
            <g transform="matrix(1.3125,0,0,1.3125,0,0)">
                <path d="M393.508,300.767C394.172,300.705 394.841,300.729 395.504,300.667C406.324,299.662 388.864,304.229 376.924,329.705C375.136,333.521 363.909,357.476 374.85,382.339C402.475,445.113 496.268,421.72 496.872,339.505C497.188,296.507 495.633,293.572 499.526,294.336C513.637,297.104 514.532,293.357 517.647,294.115C520.363,294.775 517.667,341.898 519.268,352.535C529.686,421.73 607.059,438.6 636.017,391.215C638.707,386.813 654.886,360.338 637.055,326.735C617.608,290.087 582.111,282.957 568.455,278.631C550.071,272.807 547.021,273.092 549.048,269.272C555.564,256.987 553.194,253.159 554.834,251.924C556.088,250.979 556.223,251.752 561.527,253.417C577.699,258.494 625.464,280.108 661.267,259.118C723.653,222.543 686.774,136.675 623.47,147.319C582.063,154.28 568.415,180.844 545.221,214.296C542.223,218.62 539.744,213.833 539.443,213.565C531.641,206.597 523.92,206.116 525.643,203.573C539.763,182.741 552.568,166.317 555.026,163.165C565.566,149.646 573.227,120.973 566.33,98.551C548.105,39.295 479.528,41.616 456.747,84.647C430.851,133.562 467.964,174.099 484.935,197.159C488.651,202.209 491.728,204.267 487.685,205.917C475.147,211.036 474.874,220.058 469.856,213.227C449.017,184.854 419.194,151.157 427.84,102.561C441.083,28.136 529.855,8.461 570.996,61.105C596.73,94.033 590.201,123.915 589.399,133.513C589.235,135.472 592.388,133.928 592.62,133.814C616.713,122.018 645.721,123.082 664.375,130.799C739.787,161.995 731.018,273.651 639.404,289.091C634.73,289.878 638.501,291.829 643.35,297.624C647.824,302.97 676.38,337.094 663.321,382.449C643.068,452.786 547.187,461.928 509.159,390.727C507.683,387.964 506.661,389.546 505.181,392.316C466.233,465.208 357.685,452.986 348.623,364.49C345.594,334.911 367.207,298.681 372.508,299.218C382.151,300.197 382.044,300.551 393.508,300.767Z" style="fill:rgb(232,128,125);"/>
            </g>
            <g transform="matrix(1.3125,0,0,1.3125,0,0)">
                <path d="M408.522,151.435C406.17,150.57 392.071,145.384 377.531,146.866C305.421,154.218 299.493,256.322 382.567,268.015C420.322,273.328 460.507,246.084 461.797,253.423C463.374,262.402 463.652,262.274 467.276,270.582C468.563,273.533 465.992,272.926 429.429,284.284C360.02,305.846 323.901,263.444 320.033,258.904C265.091,194.425 330.337,105.559 407.548,128.369C415.174,130.622 417.816,128.709 419.244,136.559C422.783,156.009 426.877,160.803 422.63,158.217C415.875,154.103 415.864,154.269 408.522,151.435Z" style="fill:rgb(232,128,124);"/>
            </g>
            <g transform="matrix(1.3125,0,0,1.3125,0,0)">
                <path d="M493.163,243.498C493.208,233.74 492.215,226.723 495.637,228.107C497.922,229.032 523.581,243.569 529.266,246.858C529.519,247.004 532.649,248.816 530.372,250.33C530.044,250.549 499.4,267.881 495.597,269.812C492.485,271.393 493.13,268.171 493.163,243.498Z" style="fill:rgb(232,131,127);"/>
            </g>
        </g>
    </g>
</svg>
